# xmcd
# 
# Track frame offsets:
#     150
#     24895
#     45320
#     74296
# 
# Disc length: 1379
# 
# Revision: 0
# Processed by: cddbd v1.5.2PL0 Copyright (c) Steve Scherf et al.
# Submitted via: BonkEnc v1.0.8
# 
DISCID=25056104
DTITLE=Albert King - I'll play the blues for you
DYEAR=0
DGENRE=Blues
TTITLE0=Born under a bad sign
TTITLE1=Very thought of you
TTITLE2=I worked hard
TTITLE3=When you down
EXTD=
EXTT0=
EXTT1=
EXTT2=
EXTT3=
PLAYORDER=
